{
	"asset":{
		"generator":"Khronos glTF Blender I/O v4.0.44",
		"version":"2.0"
	},
	"extensionsUsed":[
		"KHR_materials_emissive_strength"
	],
	"scene":0,
	"scenes":[
		{
			"name":"Scene",
			"nodes":[
				8
			]
		}
	],
	"nodes":[
		{
			"mesh":0,
			"name":"cb_car_export_cb_car_0"
		},
		{
			"mesh":1,
			"name":"cb_car_export_cb_car_0.001",
			"translation":[
				-84.15577697753906,
				40.852745056152344,
				-143.64378356933594
			]
		},
		{
			"mesh":2,
			"name":"cb_car_export_cb_car_0.002",
			"translation":[
				-82.0522689819336,
				40.85281753540039,
				142.2972869873047
			]
		},
		{
			"mesh":3,
			"name":"cb_car_export_cb_car_0.003",
			"translation":[
				82.0522689819336,
				40.85281753540039,
				145.0554962158203
			]
		},
		{
			"mesh":4,
			"name":"cb_car_export_cb_car_0.004",
			"translation":[
				84.15577697753906,
				40.85274124145508,
				-140.88555908203125
			]
		},
		{
			"children":[
				0,
				1,
				2,
				3,
				4
			],
			"name":"cb_car_export",
			"rotation":[
				-1,
				0,
				0,
				7.549790836947068e-08
			],
			"scale":[
				100,
				100,
				100
			]
		},
		{
			"children":[
				5
			],
			"name":"RootNode"
		},
		{
			"children":[
				6
			],
			"name":"925ec99b43b64a739d7f25d7c5c3d5cf.fbx",
			"rotation":[
				0.70710688829422,
				0,
				0,
				0.7071066498756409
			],
			"scale":[
				0.009999999776482582,
				0.010000000707805157,
				0.010000000707805157
			]
		},
		{
			"children":[
				7
			],
			"name":"Sketchfab_model",
			"rotation":[
				0,
				-0.7071068286895752,
				0.7071068286895752,
				1.001535197904833e-16
			]
		}
	],
	"materials":[
		{
			"doubleSided":true,
			"emissiveFactor":[
				1,
				1,
				1
			],
			"emissiveTexture":{
				"index":0
			},
			"extensions":{
				"KHR_materials_emissive_strength":{
					"emissiveStrength":10
				}
			},
			"name":"cb_car",
			"normalTexture":{
				"index":1
			},
			"occlusionTexture":{
				"index":2
			},
			"pbrMetallicRoughness":{
				"baseColorTexture":{
					"index":3
				},
				"metallicRoughnessTexture":{
					"index":2
				}
			}
		}
	],
	"meshes":[
		{
			"name":"cb_car_export_cb_car_0",
			"primitives":[
				{
					"attributes":{
						"POSITION":0,
						"NORMAL":1,
						"TEXCOORD_0":2
					},
					"indices":3,
					"material":0
				}
			]
		},
		{
			"name":"cb_car_export_cb_car_0.001",
			"primitives":[
				{
					"attributes":{
						"POSITION":4,
						"NORMAL":5,
						"TEXCOORD_0":6
					},
					"indices":7,
					"material":0
				}
			]
		},
		{
			"name":"cb_car_export_cb_car_0.003",
			"primitives":[
				{
					"attributes":{
						"POSITION":8,
						"NORMAL":9,
						"TEXCOORD_0":10
					},
					"indices":11,
					"material":0
				}
			]
		},
		{
			"name":"cb_car_export_cb_car_0.004",
			"primitives":[
				{
					"attributes":{
						"POSITION":12,
						"NORMAL":13,
						"TEXCOORD_0":14
					},
					"indices":15,
					"material":0
				}
			]
		},
		{
			"name":"cb_car_export_cb_car_0.005",
			"primitives":[
				{
					"attributes":{
						"POSITION":16,
						"NORMAL":17,
						"TEXCOORD_0":18
					},
					"indices":19,
					"material":0
				}
			]
		}
	],
	"textures":[
		{
			"sampler":0,
			"source":0
		},
		{
			"sampler":0,
			"source":1
		},
		{
			"sampler":0,
			"source":2
		},
		{
			"sampler":0,
			"source":3
		}
	],
	"images":[
		{
			"mimeType":"image/png",
			"name":"cb_car_emissive",
			"uri":"cb_car_emissive.png"
		},
		{
			"mimeType":"image/png",
			"name":"cb_car_normal",
			"uri":"cb_car_normal.png"
		},
		{
			"mimeType":"image/png",
			"name":"cb_car_metallicRoughness",
			"uri":"cb_car_metallicRoughness.png"
		},
		{
			"mimeType":"image/png",
			"name":"cb_car_baseColor",
			"uri":"cb_car_baseColor.png"
		}
	],
	"accessors":[
		{
			"bufferView":0,
			"componentType":5126,
			"count":5232,
			"max":[
				111.30428314208984,
				140.54132080078125,
				270.2669982910156
			],
			"min":[
				-111.30428314208984,
				20.05135154724121,
				-270.26702880859375
			],
			"type":"VEC3"
		},
		{
			"bufferView":1,
			"componentType":5126,
			"count":5232,
			"type":"VEC3"
		},
		{
			"bufferView":2,
			"componentType":5126,
			"count":5232,
			"type":"VEC2"
		},
		{
			"bufferView":3,
			"componentType":5123,
			"count":18528,
			"type":"SCALAR"
		},
		{
			"bufferView":4,
			"componentType":5126,
			"count":1131,
			"max":[
				22.15456771850586,
				40.84551239013672,
				40.84539031982422
			],
			"min":[
				-26.232643127441406,
				-40.845375061035156,
				-40.84544372558594
			],
			"type":"VEC3"
		},
		{
			"bufferView":5,
			"componentType":5126,
			"count":1131,
			"type":"VEC3"
		},
		{
			"bufferView":6,
			"componentType":5126,
			"count":1131,
			"type":"VEC2"
		},
		{
			"bufferView":7,
			"componentType":5123,
			"count":3936,
			"type":"SCALAR"
		},
		{
			"bufferView":8,
			"componentType":5126,
			"count":1131,
			"max":[
				20.05105972290039,
				40.845523834228516,
				43.60359191894531
			],
			"min":[
				-26.232643127441406,
				-40.84537124633789,
				-38.08723449707031
			],
			"type":"VEC3"
		},
		{
			"bufferView":9,
			"componentType":5126,
			"count":1131,
			"type":"VEC3"
		},
		{
			"bufferView":10,
			"componentType":5126,
			"count":1131,
			"type":"VEC2"
		},
		{
			"bufferView":11,
			"componentType":5123,
			"count":3936,
			"type":"SCALAR"
		},
		{
			"bufferView":12,
			"componentType":5126,
			"count":1129,
			"max":[
				26.232643127441406,
				40.79880905151367,
				40.79866027832031
			],
			"min":[
				-20.05105972290039,
				-40.798561096191406,
				-40.79866027832031
			],
			"type":"VEC3"
		},
		{
			"bufferView":13,
			"componentType":5126,
			"count":1129,
			"type":"VEC3"
		},
		{
			"bufferView":14,
			"componentType":5126,
			"count":1129,
			"type":"VEC2"
		},
		{
			"bufferView":15,
			"componentType":5123,
			"count":3936,
			"type":"SCALAR"
		},
		{
			"bufferView":16,
			"componentType":5126,
			"count":1131,
			"max":[
				26.232643127441406,
				40.845516204833984,
				38.08716583251953
			],
			"min":[
				-22.15456771850586,
				-40.84537124633789,
				-43.603668212890625
			],
			"type":"VEC3"
		},
		{
			"bufferView":17,
			"componentType":5126,
			"count":1131,
			"type":"VEC3"
		},
		{
			"bufferView":18,
			"componentType":5126,
			"count":1131,
			"type":"VEC2"
		},
		{
			"bufferView":19,
			"componentType":5123,
			"count":3936,
			"type":"SCALAR"
		}
	],
	"bufferViews":[
		{
			"buffer":0,
			"byteLength":62784,
			"byteOffset":0,
			"target":34962
		},
		{
			"buffer":0,
			"byteLength":62784,
			"byteOffset":62784,
			"target":34962
		},
		{
			"buffer":0,
			"byteLength":41856,
			"byteOffset":125568,
			"target":34962
		},
		{
			"buffer":0,
			"byteLength":37056,
			"byteOffset":167424,
			"target":34963
		},
		{
			"buffer":0,
			"byteLength":13572,
			"byteOffset":204480,
			"target":34962
		},
		{
			"buffer":0,
			"byteLength":13572,
			"byteOffset":218052,
			"target":34962
		},
		{
			"buffer":0,
			"byteLength":9048,
			"byteOffset":231624,
			"target":34962
		},
		{
			"buffer":0,
			"byteLength":7872,
			"byteOffset":240672,
			"target":34963
		},
		{
			"buffer":0,
			"byteLength":13572,
			"byteOffset":248544,
			"target":34962
		},
		{
			"buffer":0,
			"byteLength":13572,
			"byteOffset":262116,
			"target":34962
		},
		{
			"buffer":0,
			"byteLength":9048,
			"byteOffset":275688,
			"target":34962
		},
		{
			"buffer":0,
			"byteLength":7872,
			"byteOffset":284736,
			"target":34963
		},
		{
			"buffer":0,
			"byteLength":13548,
			"byteOffset":292608,
			"target":34962
		},
		{
			"buffer":0,
			"byteLength":13548,
			"byteOffset":306156,
			"target":34962
		},
		{
			"buffer":0,
			"byteLength":9032,
			"byteOffset":319704,
			"target":34962
		},
		{
			"buffer":0,
			"byteLength":7872,
			"byteOffset":328736,
			"target":34963
		},
		{
			"buffer":0,
			"byteLength":13572,
			"byteOffset":336608,
			"target":34962
		},
		{
			"buffer":0,
			"byteLength":13572,
			"byteOffset":350180,
			"target":34962
		},
		{
			"buffer":0,
			"byteLength":9048,
			"byteOffset":363752,
			"target":34962
		},
		{
			"buffer":0,
			"byteLength":7872,
			"byteOffset":372800,
			"target":34963
		}
	],
	"samplers":[
		{
			"magFilter":9729,
			"minFilter":9987
		}
	],
	"buffers":[
		{
			"byteLength":380672,
			"uri":"scene.bin"
		}
	]
}
